# xmcd
#
# Track frame offsets:
#	150
#	27501
#	54660
#	98963
#	139414
#	161946
#	196834
#	275797
#
# Disc length: 4095 seconds
#
# Revision: 0
# Processed by: cddbd v1.4PL0 Copyright (c) Steve Scherf et al.
# Submitted via: audiograbber 1.81.02
#
DISCID=7c0ffd08
DTITLE=Allman Brothers Band - Cow Palace 12/31/73 - Disc 1
DYEAR=1900
DGENRE=
TTITLE0=Wasted Words
TTITLE1=Done Somebody Wrong
TTITLE2=One Way Out
TTITLE3=Stormy Monday
TTITLE4=Midnight Rider
TTITLE5=Blue Sky
TTITLE6=Elizabeth Reed
TTITLE7=(Happy New Year) Statesboro Blues
EXTD=
EXTT0=
EXTT1=
EXTT2=
EXTT3=
EXTT4=
EXTT5=
EXTT6=
EXTT7=
PLAYORDER=
